<?xml version="1.0" standalone="no"?>
<!DOCTYPE svg PUBLIC "-//W3C//DTD SVG 20010904//EN"
 "http://www.w3.org/TR/2001/REC-SVG-20010904/DTD/svg10.dtd">
<svg version="1.0" xmlns="http://www.w3.org/2000/svg"
 width="150.000000pt" height="150.000000pt" viewBox="0 0 150.000000 150.000000"
 preserveAspectRatio="xMidYMid meet">
<metadata>
Created by potrace 1.11, written by Peter Selinger 2001-2013
</metadata>
<g transform="translate(0.000000,150.000000) scale(0.100000,-0.100000)"
fill="#000000" stroke="none">
<path d="M253 1485 c-82 -19 -173 -88 -211 -160 -37 -70 -40 -125 -40 -576 0
-534 3 -550 99 -648 40 -40 95 -72 152 -89 12 -3 230 -7 485 -8 549 -2 561 -1
660 95 50 49 77 100 90 172 13 71 13 888 0 958 -5 30 -18 71 -28 91 -30 58
-107 127 -169 152 -55 22 -65 22 -521 24 -339 1 -479 -2 -517 -11z"/>
</g>
</svg>
